<mxfile host="app.diagrams.net" modified="2023-10-05T13:40:18.827Z" agent="Mozilla/5.0 (Macintosh; Intel Mac OS X 10_15_7) AppleWebKit/537.36 (KHTML, like Gecko) Chrome/117.0.0.0 Safari/537.36" etag="lCk7z0ZoCPZ83DwWuKrX" version="21.8.0" type="github" pages="3">
  <diagram name="Sample Activity" id="c7488fd3-1785-93aa-aadb-54a6760d102a">
    <mxGraphModel dx="1155" dy="1085" grid="1" gridSize="10" guides="1" tooltips="1" connect="1" arrows="1" fold="1" page="1" pageScale="1" pageWidth="1100" pageHeight="850" background="none" math="0" shadow="0">
      <root>
        <mxCell id="0" />
        <mxCell id="1" parent="0" />
        <mxCell id="2b4e8129b02d487f-1" value="Change Bank Account Details" style="swimlane;html=1;childLayout=stackLayout;horizontal=1;startSize=20;horizontalStack=0;rounded=0;shadow=0;labelBackgroundColor=none;strokeWidth=1;fontFamily=Verdana;fontSize=10;align=center;" parent="1" vertex="1">
          <mxGeometry x="10" y="85" width="1020" height="680" as="geometry" />
        </mxCell>
        <mxCell id="2b4e8129b02d487f-2" value="Client" style="swimlane;html=1;startSize=20;horizontal=0;fontSize=10;" parent="2b4e8129b02d487f-1" vertex="1">
          <mxGeometry y="20" width="1020" height="210" as="geometry" />
        </mxCell>
        <mxCell id="3YWdddfmzkSlPY4Zcoo4-13" value="" style="edgeStyle=orthogonalEdgeStyle;rounded=0;orthogonalLoop=1;jettySize=auto;html=1;fontSize=10;" edge="1" parent="2b4e8129b02d487f-2" source="3YWdddfmzkSlPY4Zcoo4-9" target="3YWdddfmzkSlPY4Zcoo4-12">
          <mxGeometry relative="1" as="geometry" />
        </mxCell>
        <mxCell id="3YWdddfmzkSlPY4Zcoo4-9" value="Start" style="rounded=1;whiteSpace=wrap;html=1;arcSize=50;fontSize=10;" vertex="1" parent="2b4e8129b02d487f-2">
          <mxGeometry x="30" y="10" width="120" height="60" as="geometry" />
        </mxCell>
        <mxCell id="3YWdddfmzkSlPY4Zcoo4-12" value="Submitting change request form" style="rounded=1;whiteSpace=wrap;html=1;arcSize=0;fontSize=10;" vertex="1" parent="2b4e8129b02d487f-2">
          <mxGeometry x="30" y="120" width="120" height="60" as="geometry" />
        </mxCell>
        <mxCell id="3YWdddfmzkSlPY4Zcoo4-55" value="" style="edgeStyle=orthogonalEdgeStyle;rounded=0;orthogonalLoop=1;jettySize=auto;html=1;fontSize=10;" edge="1" parent="2b4e8129b02d487f-2" source="3YWdddfmzkSlPY4Zcoo4-50" target="3YWdddfmzkSlPY4Zcoo4-54">
          <mxGeometry relative="1" as="geometry" />
        </mxCell>
        <mxCell id="3YWdddfmzkSlPY4Zcoo4-50" value="Receive Confirmation" style="whiteSpace=wrap;html=1;rounded=1;arcSize=0;fontSize=10;" vertex="1" parent="2b4e8129b02d487f-2">
          <mxGeometry x="816" y="125" width="120" height="60" as="geometry" />
        </mxCell>
        <mxCell id="3YWdddfmzkSlPY4Zcoo4-54" value="End" style="whiteSpace=wrap;html=1;rounded=1;arcSize=50;fontSize=10;" vertex="1" parent="2b4e8129b02d487f-2">
          <mxGeometry x="816" y="15" width="120" height="60" as="geometry" />
        </mxCell>
        <mxCell id="2b4e8129b02d487f-3" value="Operation Team 1" style="swimlane;html=1;startSize=20;horizontal=0;fontSize=10;" parent="2b4e8129b02d487f-1" vertex="1">
          <mxGeometry y="230" width="1020" height="150" as="geometry" />
        </mxCell>
        <mxCell id="3YWdddfmzkSlPY4Zcoo4-17" value="" style="edgeStyle=orthogonalEdgeStyle;rounded=0;orthogonalLoop=1;jettySize=auto;html=1;fontSize=10;" edge="1" parent="2b4e8129b02d487f-3" source="3YWdddfmzkSlPY4Zcoo4-14" target="3YWdddfmzkSlPY4Zcoo4-16">
          <mxGeometry relative="1" as="geometry" />
        </mxCell>
        <mxCell id="3YWdddfmzkSlPY4Zcoo4-14" value="Receive and attach cover sheet" style="rounded=1;whiteSpace=wrap;html=1;arcSize=0;fontSize=10;" vertex="1" parent="2b4e8129b02d487f-3">
          <mxGeometry x="30" y="50" width="120" height="60" as="geometry" />
        </mxCell>
        <mxCell id="3YWdddfmzkSlPY4Zcoo4-19" value="" style="edgeStyle=orthogonalEdgeStyle;rounded=0;orthogonalLoop=1;jettySize=auto;html=1;fontSize=10;" edge="1" parent="2b4e8129b02d487f-3" source="3YWdddfmzkSlPY4Zcoo4-16" target="3YWdddfmzkSlPY4Zcoo4-18">
          <mxGeometry relative="1" as="geometry" />
        </mxCell>
        <mxCell id="3YWdddfmzkSlPY4Zcoo4-16" value="Scan Document &amp;amp; Add to Web Image System" style="rounded=1;whiteSpace=wrap;html=1;arcSize=0;fontSize=10;" vertex="1" parent="2b4e8129b02d487f-3">
          <mxGeometry x="180" y="50" width="120" height="60" as="geometry" />
        </mxCell>
        <mxCell id="3YWdddfmzkSlPY4Zcoo4-18" value="Add to Web Image System" style="shape=cylinder3;whiteSpace=wrap;html=1;boundedLbl=1;backgroundOutline=1;size=15;fontSize=10;" vertex="1" parent="2b4e8129b02d487f-3">
          <mxGeometry x="340" y="35" width="80" height="80" as="geometry" />
        </mxCell>
        <mxCell id="3YWdddfmzkSlPY4Zcoo4-32" value="Save Transaction in Database" style="shape=cylinder3;whiteSpace=wrap;html=1;boundedLbl=1;backgroundOutline=1;size=15;fontSize=10;" vertex="1" parent="2b4e8129b02d487f-3">
          <mxGeometry x="500" y="40" width="80" height="80" as="geometry" />
        </mxCell>
        <mxCell id="3YWdddfmzkSlPY4Zcoo4-49" value="" style="edgeStyle=orthogonalEdgeStyle;rounded=0;orthogonalLoop=1;jettySize=auto;html=1;fontSize=10;" edge="1" parent="2b4e8129b02d487f-3" source="3YWdddfmzkSlPY4Zcoo4-44" target="3YWdddfmzkSlPY4Zcoo4-48">
          <mxGeometry relative="1" as="geometry" />
        </mxCell>
        <mxCell id="3YWdddfmzkSlPY4Zcoo4-44" value="Retrieve Completed Transaction and Letter of Acceptance" style="whiteSpace=wrap;html=1;rounded=1;arcSize=0;fontSize=10;" vertex="1" parent="2b4e8129b02d487f-3">
          <mxGeometry x="816" y="71" width="120" height="60" as="geometry" />
        </mxCell>
        <mxCell id="3YWdddfmzkSlPY4Zcoo4-48" value="Create Document &amp;amp; Email" style="whiteSpace=wrap;html=1;rounded=1;arcSize=0;fontSize=10;" vertex="1" parent="2b4e8129b02d487f-3">
          <mxGeometry x="816" width="120" height="60" as="geometry" />
        </mxCell>
        <mxCell id="3YWdddfmzkSlPY4Zcoo4-21" value="" style="edgeStyle=orthogonalEdgeStyle;rounded=0;orthogonalLoop=1;jettySize=auto;html=1;fontSize=10;" edge="1" parent="2b4e8129b02d487f-1" source="3YWdddfmzkSlPY4Zcoo4-16" target="3YWdddfmzkSlPY4Zcoo4-20">
          <mxGeometry relative="1" as="geometry" />
        </mxCell>
        <mxCell id="3YWdddfmzkSlPY4Zcoo4-25" value="" style="edgeStyle=orthogonalEdgeStyle;rounded=0;orthogonalLoop=1;jettySize=auto;html=1;fontSize=10;" edge="1" parent="2b4e8129b02d487f-1" source="3YWdddfmzkSlPY4Zcoo4-22" target="3YWdddfmzkSlPY4Zcoo4-24">
          <mxGeometry relative="1" as="geometry" />
        </mxCell>
        <mxCell id="3YWdddfmzkSlPY4Zcoo4-26" value="[No]" style="edgeLabel;html=1;align=center;verticalAlign=middle;resizable=0;points=[];fontSize=10;" vertex="1" connectable="0" parent="3YWdddfmzkSlPY4Zcoo4-25">
          <mxGeometry x="-0.1" relative="1" as="geometry">
            <mxPoint as="offset" />
          </mxGeometry>
        </mxCell>
        <mxCell id="3YWdddfmzkSlPY4Zcoo4-29" style="edgeStyle=orthogonalEdgeStyle;rounded=0;orthogonalLoop=1;jettySize=auto;html=1;exitX=0.25;exitY=0;exitDx=0;exitDy=0;fontSize=10;" edge="1" parent="2b4e8129b02d487f-1" source="3YWdddfmzkSlPY4Zcoo4-24">
          <mxGeometry relative="1" as="geometry">
            <mxPoint x="320" y="450" as="targetPoint" />
            <Array as="points">
              <mxPoint x="365" y="560" />
            </Array>
          </mxGeometry>
        </mxCell>
        <mxCell id="2b4e8129b02d487f-4" value="Operation Team 2" style="swimlane;html=1;startSize=20;horizontal=0;fontSize=10;" parent="2b4e8129b02d487f-1" vertex="1">
          <mxGeometry y="380" width="1020" height="150" as="geometry" />
        </mxCell>
        <mxCell id="3YWdddfmzkSlPY4Zcoo4-23" value="" style="edgeStyle=orthogonalEdgeStyle;rounded=0;orthogonalLoop=1;jettySize=auto;html=1;fontSize=10;" edge="1" parent="2b4e8129b02d487f-4" source="3YWdddfmzkSlPY4Zcoo4-20" target="3YWdddfmzkSlPY4Zcoo4-22">
          <mxGeometry relative="1" as="geometry" />
        </mxCell>
        <mxCell id="3YWdddfmzkSlPY4Zcoo4-20" value="Retrieve Web Image System" style="rounded=1;whiteSpace=wrap;html=1;arcSize=0;fontSize=10;" vertex="1" parent="2b4e8129b02d487f-4">
          <mxGeometry x="180" y="40" width="120" height="60" as="geometry" />
        </mxCell>
        <mxCell id="3YWdddfmzkSlPY4Zcoo4-31" value="[yes]" style="edgeStyle=orthogonalEdgeStyle;rounded=0;orthogonalLoop=1;jettySize=auto;html=1;fontSize=10;" edge="1" parent="2b4e8129b02d487f-4" source="3YWdddfmzkSlPY4Zcoo4-22" target="3YWdddfmzkSlPY4Zcoo4-30">
          <mxGeometry relative="1" as="geometry" />
        </mxCell>
        <mxCell id="3YWdddfmzkSlPY4Zcoo4-22" value="Is the documentation complete?" style="rhombus;whiteSpace=wrap;html=1;rounded=1;arcSize=0;fontSize=10;" vertex="1" parent="2b4e8129b02d487f-4">
          <mxGeometry x="340" y="20" width="110" height="100" as="geometry" />
        </mxCell>
        <mxCell id="3YWdddfmzkSlPY4Zcoo4-35" value="" style="edgeStyle=orthogonalEdgeStyle;rounded=0;orthogonalLoop=1;jettySize=auto;html=1;fontSize=10;" edge="1" parent="2b4e8129b02d487f-4" source="3YWdddfmzkSlPY4Zcoo4-30" target="3YWdddfmzkSlPY4Zcoo4-34">
          <mxGeometry relative="1" as="geometry" />
        </mxCell>
        <mxCell id="3YWdddfmzkSlPY4Zcoo4-30" value="Create Transaction&lt;br style=&quot;font-size: 10px;&quot;&gt;In Database" style="rounded=1;whiteSpace=wrap;html=1;arcSize=0;fontSize=10;" vertex="1" parent="2b4e8129b02d487f-4">
          <mxGeometry x="490" y="40" width="120" height="60" as="geometry" />
        </mxCell>
        <mxCell id="3YWdddfmzkSlPY4Zcoo4-42" value="" style="edgeStyle=orthogonalEdgeStyle;rounded=0;orthogonalLoop=1;jettySize=auto;html=1;fontSize=10;" edge="1" parent="2b4e8129b02d487f-4" source="3YWdddfmzkSlPY4Zcoo4-34" target="3YWdddfmzkSlPY4Zcoo4-41">
          <mxGeometry relative="1" as="geometry" />
        </mxCell>
        <mxCell id="3YWdddfmzkSlPY4Zcoo4-43" value="[yes]" style="edgeLabel;html=1;align=center;verticalAlign=middle;resizable=0;points=[];fontSize=10;" vertex="1" connectable="0" parent="3YWdddfmzkSlPY4Zcoo4-42">
          <mxGeometry x="-0.4933" y="1" relative="1" as="geometry">
            <mxPoint x="1" as="offset" />
          </mxGeometry>
        </mxCell>
        <mxCell id="3YWdddfmzkSlPY4Zcoo4-34" value="Is the address known?" style="rhombus;whiteSpace=wrap;html=1;rounded=1;arcSize=0;fontSize=10;" vertex="1" parent="2b4e8129b02d487f-4">
          <mxGeometry x="631" y="25" width="110" height="90" as="geometry" />
        </mxCell>
        <mxCell id="3YWdddfmzkSlPY4Zcoo4-41" value="Process The Transaction" style="whiteSpace=wrap;html=1;rounded=1;arcSize=0;fontSize=10;" vertex="1" parent="2b4e8129b02d487f-4">
          <mxGeometry x="816" y="40" width="120" height="60" as="geometry" />
        </mxCell>
        <mxCell id="3YWdddfmzkSlPY4Zcoo4-1" value="Research Team" style="swimlane;html=1;startSize=20;horizontal=0;fontSize=10;" vertex="1" parent="2b4e8129b02d487f-1">
          <mxGeometry y="530" width="1020" height="150" as="geometry" />
        </mxCell>
        <mxCell id="3YWdddfmzkSlPY4Zcoo4-24" value="Make correction" style="whiteSpace=wrap;html=1;rounded=1;arcSize=0;fontSize=10;" vertex="1" parent="3YWdddfmzkSlPY4Zcoo4-1">
          <mxGeometry x="335" y="70" width="120" height="60" as="geometry" />
        </mxCell>
        <mxCell id="3YWdddfmzkSlPY4Zcoo4-36" value="Make correction" style="whiteSpace=wrap;html=1;rounded=1;arcSize=0;fontSize=10;" vertex="1" parent="3YWdddfmzkSlPY4Zcoo4-1">
          <mxGeometry x="626" y="60" width="120" height="60" as="geometry" />
        </mxCell>
        <mxCell id="3YWdddfmzkSlPY4Zcoo4-15" value="" style="edgeStyle=orthogonalEdgeStyle;rounded=0;orthogonalLoop=1;jettySize=auto;html=1;fontSize=10;" edge="1" parent="2b4e8129b02d487f-1" source="3YWdddfmzkSlPY4Zcoo4-12" target="3YWdddfmzkSlPY4Zcoo4-14">
          <mxGeometry relative="1" as="geometry" />
        </mxCell>
        <mxCell id="3YWdddfmzkSlPY4Zcoo4-33" style="edgeStyle=orthogonalEdgeStyle;rounded=0;orthogonalLoop=1;jettySize=auto;html=1;exitX=0.25;exitY=0;exitDx=0;exitDy=0;entryX=0.5;entryY=1;entryDx=0;entryDy=0;entryPerimeter=0;fontSize=10;" edge="1" parent="2b4e8129b02d487f-1" source="3YWdddfmzkSlPY4Zcoo4-30" target="3YWdddfmzkSlPY4Zcoo4-32">
          <mxGeometry relative="1" as="geometry" />
        </mxCell>
        <mxCell id="3YWdddfmzkSlPY4Zcoo4-37" value="" style="edgeStyle=orthogonalEdgeStyle;rounded=0;orthogonalLoop=1;jettySize=auto;html=1;fontSize=10;" edge="1" parent="2b4e8129b02d487f-1" source="3YWdddfmzkSlPY4Zcoo4-34" target="3YWdddfmzkSlPY4Zcoo4-36">
          <mxGeometry relative="1" as="geometry" />
        </mxCell>
        <mxCell id="3YWdddfmzkSlPY4Zcoo4-38" value="[No]" style="edgeLabel;html=1;align=center;verticalAlign=middle;resizable=0;points=[];fontSize=10;" vertex="1" connectable="0" parent="3YWdddfmzkSlPY4Zcoo4-37">
          <mxGeometry x="-0.0427" y="-1" relative="1" as="geometry">
            <mxPoint as="offset" />
          </mxGeometry>
        </mxCell>
        <mxCell id="3YWdddfmzkSlPY4Zcoo4-40" style="edgeStyle=orthogonalEdgeStyle;rounded=0;orthogonalLoop=1;jettySize=auto;html=1;exitX=0;exitY=0.5;exitDx=0;exitDy=0;fontSize=10;" edge="1" parent="2b4e8129b02d487f-1" source="3YWdddfmzkSlPY4Zcoo4-36">
          <mxGeometry relative="1" as="geometry">
            <mxPoint x="620" y="450" as="targetPoint" />
          </mxGeometry>
        </mxCell>
        <mxCell id="3YWdddfmzkSlPY4Zcoo4-45" value="" style="edgeStyle=orthogonalEdgeStyle;rounded=0;orthogonalLoop=1;jettySize=auto;html=1;fontSize=10;" edge="1" parent="2b4e8129b02d487f-1" source="3YWdddfmzkSlPY4Zcoo4-41" target="3YWdddfmzkSlPY4Zcoo4-44">
          <mxGeometry relative="1" as="geometry" />
        </mxCell>
        <mxCell id="3YWdddfmzkSlPY4Zcoo4-51" value="" style="edgeStyle=orthogonalEdgeStyle;rounded=0;orthogonalLoop=1;jettySize=auto;html=1;fontSize=10;" edge="1" parent="2b4e8129b02d487f-1" source="3YWdddfmzkSlPY4Zcoo4-48" target="3YWdddfmzkSlPY4Zcoo4-50">
          <mxGeometry relative="1" as="geometry" />
        </mxCell>
      </root>
    </mxGraphModel>
  </diagram>
  <diagram id="42Ae9bCxhkxdfVu3XKOs" name="Activity 1 - Swimlane">
    <mxGraphModel dx="1990" dy="1267" grid="1" gridSize="10" guides="1" tooltips="1" connect="1" arrows="1" fold="1" page="1" pageScale="1" pageWidth="827" pageHeight="1169" math="0" shadow="0">
      <root>
        <mxCell id="0" />
        <mxCell id="1" parent="0" />
        <mxCell id="UHenDtWm6OmOtwsL2xLt-1" value="Steps of Getting Access to Application by Creating Request" style="swimlane;html=1;childLayout=stackLayout;horizontal=1;startSize=20;horizontalStack=0;rounded=0;shadow=0;labelBackgroundColor=none;strokeWidth=1;fontFamily=Verdana;fontSize=10;align=center;" vertex="1" parent="1">
          <mxGeometry x="10" y="85" width="840" height="1380" as="geometry" />
        </mxCell>
        <mxCell id="UHenDtWm6OmOtwsL2xLt-2" value="Requestor" style="swimlane;html=1;startSize=20;horizontal=0;fontSize=10;" vertex="1" parent="UHenDtWm6OmOtwsL2xLt-1">
          <mxGeometry y="20" width="840" height="305" as="geometry" />
        </mxCell>
        <mxCell id="UHenDtWm6OmOtwsL2xLt-47" value="" style="edgeStyle=orthogonalEdgeStyle;rounded=0;orthogonalLoop=1;jettySize=auto;html=1;" edge="1" parent="UHenDtWm6OmOtwsL2xLt-2" source="UHenDtWm6OmOtwsL2xLt-45" target="UHenDtWm6OmOtwsL2xLt-46">
          <mxGeometry relative="1" as="geometry" />
        </mxCell>
        <mxCell id="UHenDtWm6OmOtwsL2xLt-45" value="START" style="rounded=1;whiteSpace=wrap;html=1;arcSize=50;" vertex="1" parent="UHenDtWm6OmOtwsL2xLt-2">
          <mxGeometry x="30" y="15" width="120" height="60" as="geometry" />
        </mxCell>
        <mxCell id="UHenDtWm6OmOtwsL2xLt-49" value="" style="edgeStyle=orthogonalEdgeStyle;rounded=0;orthogonalLoop=1;jettySize=auto;html=1;" edge="1" parent="UHenDtWm6OmOtwsL2xLt-2" source="UHenDtWm6OmOtwsL2xLt-46" target="UHenDtWm6OmOtwsL2xLt-48">
          <mxGeometry relative="1" as="geometry" />
        </mxCell>
        <mxCell id="UHenDtWm6OmOtwsL2xLt-46" value="Fills in application form" style="rounded=1;whiteSpace=wrap;html=1;arcSize=0;" vertex="1" parent="UHenDtWm6OmOtwsL2xLt-2">
          <mxGeometry x="30" y="105" width="120" height="60" as="geometry" />
        </mxCell>
        <mxCell id="UHenDtWm6OmOtwsL2xLt-48" value="Supervisor approval required?" style="rhombus;whiteSpace=wrap;html=1;rounded=1;arcSize=0;" vertex="1" parent="UHenDtWm6OmOtwsL2xLt-2">
          <mxGeometry x="40" y="184" width="100" height="105" as="geometry" />
        </mxCell>
        <mxCell id="UHenDtWm6OmOtwsL2xLt-67" value="" style="edgeStyle=orthogonalEdgeStyle;rounded=0;orthogonalLoop=1;jettySize=auto;html=1;" edge="1" parent="UHenDtWm6OmOtwsL2xLt-2" source="UHenDtWm6OmOtwsL2xLt-64" target="UHenDtWm6OmOtwsL2xLt-66">
          <mxGeometry relative="1" as="geometry" />
        </mxCell>
        <mxCell id="UHenDtWm6OmOtwsL2xLt-64" value="Receive Rejection Notification" style="whiteSpace=wrap;html=1;rounded=1;arcSize=0;" vertex="1" parent="UHenDtWm6OmOtwsL2xLt-2">
          <mxGeometry x="188" y="225" width="120" height="60" as="geometry" />
        </mxCell>
        <mxCell id="UHenDtWm6OmOtwsL2xLt-66" value="Access Denied" style="whiteSpace=wrap;html=1;rounded=1;arcSize=0;" vertex="1" parent="UHenDtWm6OmOtwsL2xLt-2">
          <mxGeometry x="188" y="146" width="120" height="60" as="geometry" />
        </mxCell>
        <mxCell id="UHenDtWm6OmOtwsL2xLt-78" value="" style="edgeStyle=orthogonalEdgeStyle;rounded=0;orthogonalLoop=1;jettySize=auto;html=1;entryX=1;entryY=0.25;entryDx=0;entryDy=0;" edge="1" parent="UHenDtWm6OmOtwsL2xLt-2" source="UHenDtWm6OmOtwsL2xLt-75" target="UHenDtWm6OmOtwsL2xLt-46">
          <mxGeometry relative="1" as="geometry">
            <mxPoint x="510" y="125" as="targetPoint" />
            <Array as="points">
              <mxPoint x="370" y="125" />
              <mxPoint x="370" y="120" />
            </Array>
          </mxGeometry>
        </mxCell>
        <mxCell id="UHenDtWm6OmOtwsL2xLt-75" value="Receive Correction Request" style="whiteSpace=wrap;html=1;rounded=1;arcSize=0;" vertex="1" parent="UHenDtWm6OmOtwsL2xLt-2">
          <mxGeometry x="590" y="95" width="120" height="60" as="geometry" />
        </mxCell>
        <mxCell id="UHenDtWm6OmOtwsL2xLt-95" value="" style="edgeStyle=orthogonalEdgeStyle;rounded=0;orthogonalLoop=1;jettySize=auto;html=1;" edge="1" parent="UHenDtWm6OmOtwsL2xLt-2">
          <mxGeometry relative="1" as="geometry">
            <mxPoint x="420" y="225" as="sourcePoint" />
            <mxPoint x="310" y="185" as="targetPoint" />
            <Array as="points">
              <mxPoint x="420" y="185" />
            </Array>
          </mxGeometry>
        </mxCell>
        <mxCell id="UHenDtWm6OmOtwsL2xLt-92" value="Receive Rejection" style="whiteSpace=wrap;html=1;rounded=1;arcSize=0;" vertex="1" parent="UHenDtWm6OmOtwsL2xLt-2">
          <mxGeometry x="348" y="226" width="120" height="60" as="geometry" />
        </mxCell>
        <mxCell id="UHenDtWm6OmOtwsL2xLt-107" value="" style="edgeStyle=orthogonalEdgeStyle;rounded=0;orthogonalLoop=1;jettySize=auto;html=1;" edge="1" parent="UHenDtWm6OmOtwsL2xLt-2" source="UHenDtWm6OmOtwsL2xLt-104" target="UHenDtWm6OmOtwsL2xLt-106">
          <mxGeometry relative="1" as="geometry" />
        </mxCell>
        <mxCell id="UHenDtWm6OmOtwsL2xLt-104" value="Receive Confirmation" style="whiteSpace=wrap;html=1;rounded=1;arcSize=0;" vertex="1" parent="UHenDtWm6OmOtwsL2xLt-2">
          <mxGeometry x="720" y="95" width="120" height="60" as="geometry" />
        </mxCell>
        <mxCell id="UHenDtWm6OmOtwsL2xLt-106" value="Access Granted" style="whiteSpace=wrap;html=1;rounded=1;arcSize=0;" vertex="1" parent="UHenDtWm6OmOtwsL2xLt-2">
          <mxGeometry x="720" y="25" width="120" height="60" as="geometry" />
        </mxCell>
        <mxCell id="UHenDtWm6OmOtwsL2xLt-127" value="Receive Rejection" style="whiteSpace=wrap;html=1;rounded=1;arcSize=0;" vertex="1" parent="UHenDtWm6OmOtwsL2xLt-2">
          <mxGeometry x="490" y="227" width="120" height="60" as="geometry" />
        </mxCell>
        <mxCell id="UHenDtWm6OmOtwsL2xLt-9" value="Supervisor" style="swimlane;html=1;startSize=20;horizontal=0;fontSize=10;" vertex="1" parent="UHenDtWm6OmOtwsL2xLt-1">
          <mxGeometry y="325" width="840" height="335" as="geometry" />
        </mxCell>
        <mxCell id="UHenDtWm6OmOtwsL2xLt-53" value="" style="edgeStyle=orthogonalEdgeStyle;rounded=0;orthogonalLoop=1;jettySize=auto;html=1;" edge="1" parent="UHenDtWm6OmOtwsL2xLt-9" source="UHenDtWm6OmOtwsL2xLt-50" target="UHenDtWm6OmOtwsL2xLt-52">
          <mxGeometry relative="1" as="geometry" />
        </mxCell>
        <mxCell id="UHenDtWm6OmOtwsL2xLt-50" value="Review Request" style="whiteSpace=wrap;html=1;rounded=1;arcSize=0;" vertex="1" parent="UHenDtWm6OmOtwsL2xLt-9">
          <mxGeometry x="30" y="20" width="120" height="60" as="geometry" />
        </mxCell>
        <mxCell id="UHenDtWm6OmOtwsL2xLt-56" value="[yes]" style="edgeStyle=orthogonalEdgeStyle;rounded=0;orthogonalLoop=1;jettySize=auto;html=1;" edge="1" parent="UHenDtWm6OmOtwsL2xLt-9" source="UHenDtWm6OmOtwsL2xLt-52" target="UHenDtWm6OmOtwsL2xLt-55">
          <mxGeometry relative="1" as="geometry" />
        </mxCell>
        <mxCell id="UHenDtWm6OmOtwsL2xLt-58" value="" style="edgeStyle=orthogonalEdgeStyle;rounded=0;orthogonalLoop=1;jettySize=auto;html=1;" edge="1" parent="UHenDtWm6OmOtwsL2xLt-9" source="UHenDtWm6OmOtwsL2xLt-52" target="UHenDtWm6OmOtwsL2xLt-57">
          <mxGeometry relative="1" as="geometry" />
        </mxCell>
        <mxCell id="UHenDtWm6OmOtwsL2xLt-59" value="[No]" style="edgeLabel;html=1;align=center;verticalAlign=middle;resizable=0;points=[];" vertex="1" connectable="0" parent="UHenDtWm6OmOtwsL2xLt-58">
          <mxGeometry x="-0.3259" y="-2" relative="1" as="geometry">
            <mxPoint as="offset" />
          </mxGeometry>
        </mxCell>
        <mxCell id="UHenDtWm6OmOtwsL2xLt-52" value="Is Access Required?" style="rhombus;whiteSpace=wrap;html=1;rounded=1;arcSize=0;" vertex="1" parent="UHenDtWm6OmOtwsL2xLt-9">
          <mxGeometry x="50" y="105" width="80" height="80" as="geometry" />
        </mxCell>
        <mxCell id="UHenDtWm6OmOtwsL2xLt-55" value="Approve Request&amp;nbsp;" style="whiteSpace=wrap;html=1;rounded=1;arcSize=0;" vertex="1" parent="UHenDtWm6OmOtwsL2xLt-9">
          <mxGeometry x="420" y="115" width="120" height="60" as="geometry" />
        </mxCell>
        <mxCell id="UHenDtWm6OmOtwsL2xLt-61" value="" style="edgeStyle=orthogonalEdgeStyle;rounded=0;orthogonalLoop=1;jettySize=auto;html=1;" edge="1" parent="UHenDtWm6OmOtwsL2xLt-9" source="UHenDtWm6OmOtwsL2xLt-57" target="UHenDtWm6OmOtwsL2xLt-60">
          <mxGeometry relative="1" as="geometry" />
        </mxCell>
        <mxCell id="UHenDtWm6OmOtwsL2xLt-57" value="Reject Request with Reason" style="whiteSpace=wrap;html=1;rounded=1;arcSize=0;" vertex="1" parent="UHenDtWm6OmOtwsL2xLt-9">
          <mxGeometry x="30" y="220" width="120" height="60" as="geometry" />
        </mxCell>
        <mxCell id="UHenDtWm6OmOtwsL2xLt-60" value="Send Rejection Message" style="whiteSpace=wrap;html=1;rounded=1;arcSize=0;" vertex="1" parent="UHenDtWm6OmOtwsL2xLt-9">
          <mxGeometry x="188" y="220" width="120" height="60" as="geometry" />
        </mxCell>
        <mxCell id="UHenDtWm6OmOtwsL2xLt-23" value="Internal Access Team" style="swimlane;html=1;startSize=20;horizontal=0;fontSize=10;" vertex="1" parent="UHenDtWm6OmOtwsL2xLt-1">
          <mxGeometry y="660" width="840" height="490" as="geometry" />
        </mxCell>
        <mxCell id="UHenDtWm6OmOtwsL2xLt-72" value="" style="edgeStyle=orthogonalEdgeStyle;rounded=0;orthogonalLoop=1;jettySize=auto;html=1;" edge="1" parent="UHenDtWm6OmOtwsL2xLt-23" source="UHenDtWm6OmOtwsL2xLt-69" target="UHenDtWm6OmOtwsL2xLt-71">
          <mxGeometry relative="1" as="geometry" />
        </mxCell>
        <mxCell id="UHenDtWm6OmOtwsL2xLt-69" value="Review the Application Form" style="whiteSpace=wrap;html=1;rounded=1;arcSize=0;" vertex="1" parent="UHenDtWm6OmOtwsL2xLt-23">
          <mxGeometry x="420" y="15" width="120" height="60" as="geometry" />
        </mxCell>
        <mxCell id="UHenDtWm6OmOtwsL2xLt-74" value="[No]" style="edgeStyle=orthogonalEdgeStyle;rounded=0;orthogonalLoop=1;jettySize=auto;html=1;" edge="1" parent="UHenDtWm6OmOtwsL2xLt-23" source="UHenDtWm6OmOtwsL2xLt-71" target="UHenDtWm6OmOtwsL2xLt-73">
          <mxGeometry relative="1" as="geometry" />
        </mxCell>
        <mxCell id="UHenDtWm6OmOtwsL2xLt-84" value="[yes]" style="edgeStyle=orthogonalEdgeStyle;rounded=0;orthogonalLoop=1;jettySize=auto;html=1;" edge="1" parent="UHenDtWm6OmOtwsL2xLt-23" source="UHenDtWm6OmOtwsL2xLt-71" target="UHenDtWm6OmOtwsL2xLt-83">
          <mxGeometry relative="1" as="geometry" />
        </mxCell>
        <mxCell id="UHenDtWm6OmOtwsL2xLt-71" value="Are all fields complete?" style="rhombus;whiteSpace=wrap;html=1;rounded=1;arcSize=0;" vertex="1" parent="UHenDtWm6OmOtwsL2xLt-23">
          <mxGeometry x="435" y="115" width="90" height="105" as="geometry" />
        </mxCell>
        <mxCell id="UHenDtWm6OmOtwsL2xLt-73" value="&lt;br&gt;Request Corrections and Send correction request&lt;br&gt;" style="whiteSpace=wrap;html=1;rounded=1;arcSize=0;" vertex="1" parent="UHenDtWm6OmOtwsL2xLt-23">
          <mxGeometry x="590" y="137.5" width="120" height="60" as="geometry" />
        </mxCell>
        <mxCell id="UHenDtWm6OmOtwsL2xLt-88" value="" style="edgeStyle=orthogonalEdgeStyle;rounded=0;orthogonalLoop=1;jettySize=auto;html=1;" edge="1" parent="UHenDtWm6OmOtwsL2xLt-23" source="UHenDtWm6OmOtwsL2xLt-83" target="UHenDtWm6OmOtwsL2xLt-87">
          <mxGeometry relative="1" as="geometry" />
        </mxCell>
        <mxCell id="UHenDtWm6OmOtwsL2xLt-89" value="[No]" style="edgeLabel;html=1;align=center;verticalAlign=middle;resizable=0;points=[];" vertex="1" connectable="0" parent="UHenDtWm6OmOtwsL2xLt-88">
          <mxGeometry x="-0.3031" y="1" relative="1" as="geometry">
            <mxPoint as="offset" />
          </mxGeometry>
        </mxCell>
        <mxCell id="UHenDtWm6OmOtwsL2xLt-97" value="" style="edgeStyle=orthogonalEdgeStyle;rounded=0;orthogonalLoop=1;jettySize=auto;html=1;" edge="1" parent="UHenDtWm6OmOtwsL2xLt-23" source="UHenDtWm6OmOtwsL2xLt-83" target="UHenDtWm6OmOtwsL2xLt-96">
          <mxGeometry relative="1" as="geometry" />
        </mxCell>
        <mxCell id="UHenDtWm6OmOtwsL2xLt-98" value="[Yes]" style="edgeLabel;html=1;align=center;verticalAlign=middle;resizable=0;points=[];" vertex="1" connectable="0" parent="UHenDtWm6OmOtwsL2xLt-97">
          <mxGeometry x="-0.0893" y="5" relative="1" as="geometry">
            <mxPoint x="-1" as="offset" />
          </mxGeometry>
        </mxCell>
        <mxCell id="UHenDtWm6OmOtwsL2xLt-83" value="Is Access allowed by Application Rules?" style="rhombus;whiteSpace=wrap;html=1;rounded=1;arcSize=0;" vertex="1" parent="UHenDtWm6OmOtwsL2xLt-23">
          <mxGeometry x="265" y="115" width="90" height="105" as="geometry" />
        </mxCell>
        <mxCell id="UHenDtWm6OmOtwsL2xLt-91" value="" style="edgeStyle=orthogonalEdgeStyle;rounded=0;orthogonalLoop=1;jettySize=auto;html=1;" edge="1" parent="UHenDtWm6OmOtwsL2xLt-23" source="UHenDtWm6OmOtwsL2xLt-87" target="UHenDtWm6OmOtwsL2xLt-90">
          <mxGeometry relative="1" as="geometry" />
        </mxCell>
        <mxCell id="UHenDtWm6OmOtwsL2xLt-87" value="Reject Request" style="whiteSpace=wrap;html=1;rounded=1;arcSize=0;" vertex="1" parent="UHenDtWm6OmOtwsL2xLt-23">
          <mxGeometry x="250" y="255" width="120" height="60" as="geometry" />
        </mxCell>
        <mxCell id="UHenDtWm6OmOtwsL2xLt-90" value="Send Rejection Message" style="whiteSpace=wrap;html=1;rounded=1;arcSize=0;" vertex="1" parent="UHenDtWm6OmOtwsL2xLt-23">
          <mxGeometry x="250" y="335" width="120" height="60" as="geometry" />
        </mxCell>
        <mxCell id="UHenDtWm6OmOtwsL2xLt-100" value="[No]" style="edgeStyle=orthogonalEdgeStyle;rounded=0;orthogonalLoop=1;jettySize=auto;html=1;" edge="1" parent="UHenDtWm6OmOtwsL2xLt-23" source="UHenDtWm6OmOtwsL2xLt-96" target="UHenDtWm6OmOtwsL2xLt-99">
          <mxGeometry relative="1" as="geometry" />
        </mxCell>
        <mxCell id="UHenDtWm6OmOtwsL2xLt-109" value="" style="edgeStyle=orthogonalEdgeStyle;rounded=0;orthogonalLoop=1;jettySize=auto;html=1;" edge="1" parent="UHenDtWm6OmOtwsL2xLt-23" source="UHenDtWm6OmOtwsL2xLt-96" target="UHenDtWm6OmOtwsL2xLt-108">
          <mxGeometry relative="1" as="geometry" />
        </mxCell>
        <mxCell id="UHenDtWm6OmOtwsL2xLt-96" value="Is it a 3rd&lt;br&gt;Party Application?" style="rhombus;whiteSpace=wrap;html=1;rounded=1;arcSize=0;" vertex="1" parent="UHenDtWm6OmOtwsL2xLt-23">
          <mxGeometry x="95" y="205" width="90" height="105" as="geometry" />
        </mxCell>
        <mxCell id="UHenDtWm6OmOtwsL2xLt-103" value="" style="edgeStyle=orthogonalEdgeStyle;rounded=0;orthogonalLoop=1;jettySize=auto;html=1;" edge="1" parent="UHenDtWm6OmOtwsL2xLt-23" source="UHenDtWm6OmOtwsL2xLt-99" target="UHenDtWm6OmOtwsL2xLt-102">
          <mxGeometry relative="1" as="geometry" />
        </mxCell>
        <mxCell id="UHenDtWm6OmOtwsL2xLt-99" value="Grant System Access" style="whiteSpace=wrap;html=1;rounded=1;arcSize=0;" vertex="1" parent="UHenDtWm6OmOtwsL2xLt-23">
          <mxGeometry x="80" y="125" width="120" height="60" as="geometry" />
        </mxCell>
        <mxCell id="UHenDtWm6OmOtwsL2xLt-102" value="Send Confirmation" style="whiteSpace=wrap;html=1;rounded=1;arcSize=0;" vertex="1" parent="UHenDtWm6OmOtwsL2xLt-23">
          <mxGeometry x="80" y="35" width="120" height="60" as="geometry" />
        </mxCell>
        <mxCell id="UHenDtWm6OmOtwsL2xLt-108" value="Send Access Request to 3rd Party App team" style="whiteSpace=wrap;html=1;rounded=1;arcSize=0;" vertex="1" parent="UHenDtWm6OmOtwsL2xLt-23">
          <mxGeometry x="80" y="412.5" width="120" height="60" as="geometry" />
        </mxCell>
        <mxCell id="UHenDtWm6OmOtwsL2xLt-122" value="" style="edgeStyle=orthogonalEdgeStyle;rounded=0;orthogonalLoop=1;jettySize=auto;html=1;" edge="1" parent="UHenDtWm6OmOtwsL2xLt-23" source="UHenDtWm6OmOtwsL2xLt-119" target="UHenDtWm6OmOtwsL2xLt-121">
          <mxGeometry relative="1" as="geometry" />
        </mxCell>
        <mxCell id="UHenDtWm6OmOtwsL2xLt-119" value="Receive Rejection" style="whiteSpace=wrap;html=1;rounded=1;arcSize=0;" vertex="1" parent="UHenDtWm6OmOtwsL2xLt-23">
          <mxGeometry x="480" y="412.5" width="120" height="60" as="geometry" />
        </mxCell>
        <mxCell id="UHenDtWm6OmOtwsL2xLt-126" value="" style="edgeStyle=orthogonalEdgeStyle;rounded=0;orthogonalLoop=1;jettySize=auto;html=1;" edge="1" parent="UHenDtWm6OmOtwsL2xLt-23" source="UHenDtWm6OmOtwsL2xLt-121" target="UHenDtWm6OmOtwsL2xLt-125">
          <mxGeometry relative="1" as="geometry" />
        </mxCell>
        <mxCell id="UHenDtWm6OmOtwsL2xLt-121" value="Reject Request" style="whiteSpace=wrap;html=1;rounded=1;arcSize=0;" vertex="1" parent="UHenDtWm6OmOtwsL2xLt-23">
          <mxGeometry x="480" y="332.5" width="120" height="60" as="geometry" />
        </mxCell>
        <mxCell id="UHenDtWm6OmOtwsL2xLt-125" value="Send Rejection Message" style="whiteSpace=wrap;html=1;rounded=1;arcSize=0;" vertex="1" parent="UHenDtWm6OmOtwsL2xLt-23">
          <mxGeometry x="480" y="250" width="120" height="60" as="geometry" />
        </mxCell>
        <mxCell id="UHenDtWm6OmOtwsL2xLt-135" value="" style="edgeStyle=orthogonalEdgeStyle;rounded=0;orthogonalLoop=1;jettySize=auto;html=1;entryX=0;entryY=0.25;entryDx=0;entryDy=0;" edge="1" parent="UHenDtWm6OmOtwsL2xLt-23" source="UHenDtWm6OmOtwsL2xLt-132" target="UHenDtWm6OmOtwsL2xLt-99">
          <mxGeometry relative="1" as="geometry">
            <mxPoint x="750" y="332.5" as="targetPoint" />
            <Array as="points">
              <mxPoint x="750" y="405" />
              <mxPoint x="60" y="405" />
              <mxPoint x="60" y="140" />
            </Array>
          </mxGeometry>
        </mxCell>
        <mxCell id="UHenDtWm6OmOtwsL2xLt-132" value="Receive Confirmation" style="whiteSpace=wrap;html=1;rounded=1;arcSize=0;" vertex="1" parent="UHenDtWm6OmOtwsL2xLt-23">
          <mxGeometry x="690" y="412.5" width="120" height="60" as="geometry" />
        </mxCell>
        <mxCell id="UHenDtWm6OmOtwsL2xLt-51" value="" style="edgeStyle=orthogonalEdgeStyle;rounded=0;orthogonalLoop=1;jettySize=auto;html=1;" edge="1" parent="UHenDtWm6OmOtwsL2xLt-1" source="UHenDtWm6OmOtwsL2xLt-48" target="UHenDtWm6OmOtwsL2xLt-50">
          <mxGeometry relative="1" as="geometry" />
        </mxCell>
        <mxCell id="UHenDtWm6OmOtwsL2xLt-54" value="[Yes]" style="edgeLabel;html=1;align=center;verticalAlign=middle;resizable=0;points=[];" vertex="1" connectable="0" parent="UHenDtWm6OmOtwsL2xLt-51">
          <mxGeometry x="0.4926" relative="1" as="geometry">
            <mxPoint as="offset" />
          </mxGeometry>
        </mxCell>
        <mxCell id="UHenDtWm6OmOtwsL2xLt-68" value="Text" style="edgeLabel;html=1;align=center;verticalAlign=middle;resizable=0;points=[];" vertex="1" connectable="0" parent="UHenDtWm6OmOtwsL2xLt-51">
          <mxGeometry x="-0.8571" y="1" relative="1" as="geometry">
            <mxPoint as="offset" />
          </mxGeometry>
        </mxCell>
        <mxCell id="UHenDtWm6OmOtwsL2xLt-65" value="" style="edgeStyle=orthogonalEdgeStyle;rounded=0;orthogonalLoop=1;jettySize=auto;html=1;" edge="1" parent="UHenDtWm6OmOtwsL2xLt-1" source="UHenDtWm6OmOtwsL2xLt-60" target="UHenDtWm6OmOtwsL2xLt-64">
          <mxGeometry relative="1" as="geometry" />
        </mxCell>
        <mxCell id="UHenDtWm6OmOtwsL2xLt-70" value="" style="edgeStyle=orthogonalEdgeStyle;rounded=0;orthogonalLoop=1;jettySize=auto;html=1;" edge="1" parent="UHenDtWm6OmOtwsL2xLt-1" source="UHenDtWm6OmOtwsL2xLt-55" target="UHenDtWm6OmOtwsL2xLt-69">
          <mxGeometry relative="1" as="geometry" />
        </mxCell>
        <mxCell id="UHenDtWm6OmOtwsL2xLt-76" value="" style="edgeStyle=orthogonalEdgeStyle;rounded=0;orthogonalLoop=1;jettySize=auto;html=1;" edge="1" parent="UHenDtWm6OmOtwsL2xLt-1" source="UHenDtWm6OmOtwsL2xLt-73" target="UHenDtWm6OmOtwsL2xLt-75">
          <mxGeometry relative="1" as="geometry" />
        </mxCell>
        <mxCell id="UHenDtWm6OmOtwsL2xLt-93" value="" style="edgeStyle=orthogonalEdgeStyle;rounded=0;orthogonalLoop=1;jettySize=auto;html=1;" edge="1" parent="UHenDtWm6OmOtwsL2xLt-1" source="UHenDtWm6OmOtwsL2xLt-90" target="UHenDtWm6OmOtwsL2xLt-92">
          <mxGeometry relative="1" as="geometry">
            <Array as="points">
              <mxPoint x="410" y="1025" />
              <mxPoint x="410" y="651" />
              <mxPoint x="408" y="651" />
            </Array>
          </mxGeometry>
        </mxCell>
        <mxCell id="UHenDtWm6OmOtwsL2xLt-105" value="" style="edgeStyle=orthogonalEdgeStyle;rounded=0;orthogonalLoop=1;jettySize=auto;html=1;entryX=0.5;entryY=1;entryDx=0;entryDy=0;" edge="1" parent="UHenDtWm6OmOtwsL2xLt-1" source="UHenDtWm6OmOtwsL2xLt-102" target="UHenDtWm6OmOtwsL2xLt-104">
          <mxGeometry relative="1" as="geometry">
            <Array as="points">
              <mxPoint x="140" y="645" />
              <mxPoint x="780" y="645" />
            </Array>
          </mxGeometry>
        </mxCell>
        <mxCell id="UHenDtWm6OmOtwsL2xLt-111" value="" style="edgeStyle=orthogonalEdgeStyle;rounded=0;orthogonalLoop=1;jettySize=auto;html=1;" edge="1" parent="UHenDtWm6OmOtwsL2xLt-1" source="UHenDtWm6OmOtwsL2xLt-108" target="UHenDtWm6OmOtwsL2xLt-110">
          <mxGeometry relative="1" as="geometry" />
        </mxCell>
        <mxCell id="UHenDtWm6OmOtwsL2xLt-120" value="" style="edgeStyle=orthogonalEdgeStyle;rounded=0;orthogonalLoop=1;jettySize=auto;html=1;" edge="1" parent="UHenDtWm6OmOtwsL2xLt-1" source="UHenDtWm6OmOtwsL2xLt-116" target="UHenDtWm6OmOtwsL2xLt-119">
          <mxGeometry relative="1" as="geometry" />
        </mxCell>
        <mxCell id="UHenDtWm6OmOtwsL2xLt-128" value="" style="edgeStyle=orthogonalEdgeStyle;rounded=0;orthogonalLoop=1;jettySize=auto;html=1;" edge="1" parent="UHenDtWm6OmOtwsL2xLt-1" source="UHenDtWm6OmOtwsL2xLt-125" target="UHenDtWm6OmOtwsL2xLt-127">
          <mxGeometry relative="1" as="geometry">
            <Array as="points">
              <mxPoint x="570" y="618" />
              <mxPoint x="550" y="618" />
            </Array>
          </mxGeometry>
        </mxCell>
        <mxCell id="UHenDtWm6OmOtwsL2xLt-34" value="3rd party app team" style="swimlane;html=1;startSize=20;horizontal=0;fontSize=10;" vertex="1" parent="UHenDtWm6OmOtwsL2xLt-1">
          <mxGeometry y="1150" width="840" height="230" as="geometry" />
        </mxCell>
        <mxCell id="UHenDtWm6OmOtwsL2xLt-113" value="" style="edgeStyle=orthogonalEdgeStyle;rounded=0;orthogonalLoop=1;jettySize=auto;html=1;" edge="1" parent="UHenDtWm6OmOtwsL2xLt-34" source="UHenDtWm6OmOtwsL2xLt-110" target="UHenDtWm6OmOtwsL2xLt-112">
          <mxGeometry relative="1" as="geometry" />
        </mxCell>
        <mxCell id="UHenDtWm6OmOtwsL2xLt-110" value="Receive Access Request" style="whiteSpace=wrap;html=1;rounded=1;arcSize=0;" vertex="1" parent="UHenDtWm6OmOtwsL2xLt-34">
          <mxGeometry x="80" y="62.5" width="120" height="60" as="geometry" />
        </mxCell>
        <mxCell id="UHenDtWm6OmOtwsL2xLt-115" value="" style="edgeStyle=orthogonalEdgeStyle;rounded=0;orthogonalLoop=1;jettySize=auto;html=1;" edge="1" parent="UHenDtWm6OmOtwsL2xLt-34" source="UHenDtWm6OmOtwsL2xLt-112" target="UHenDtWm6OmOtwsL2xLt-114">
          <mxGeometry relative="1" as="geometry" />
        </mxCell>
        <mxCell id="UHenDtWm6OmOtwsL2xLt-112" value="Review Request" style="whiteSpace=wrap;html=1;rounded=1;arcSize=0;" vertex="1" parent="UHenDtWm6OmOtwsL2xLt-34">
          <mxGeometry x="280" y="62.5" width="120" height="60" as="geometry" />
        </mxCell>
        <mxCell id="UHenDtWm6OmOtwsL2xLt-117" value="" style="edgeStyle=orthogonalEdgeStyle;rounded=0;orthogonalLoop=1;jettySize=auto;html=1;" edge="1" parent="UHenDtWm6OmOtwsL2xLt-34" source="UHenDtWm6OmOtwsL2xLt-114" target="UHenDtWm6OmOtwsL2xLt-116">
          <mxGeometry relative="1" as="geometry" />
        </mxCell>
        <mxCell id="UHenDtWm6OmOtwsL2xLt-118" value="[No]" style="edgeLabel;html=1;align=center;verticalAlign=middle;resizable=0;points=[];" vertex="1" connectable="0" parent="UHenDtWm6OmOtwsL2xLt-117">
          <mxGeometry x="-0.0145" relative="1" as="geometry">
            <mxPoint as="offset" />
          </mxGeometry>
        </mxCell>
        <mxCell id="UHenDtWm6OmOtwsL2xLt-131" value="[Yes]" style="edgeStyle=orthogonalEdgeStyle;rounded=0;orthogonalLoop=1;jettySize=auto;html=1;" edge="1" parent="UHenDtWm6OmOtwsL2xLt-34" source="UHenDtWm6OmOtwsL2xLt-114" target="UHenDtWm6OmOtwsL2xLt-130">
          <mxGeometry relative="1" as="geometry" />
        </mxCell>
        <mxCell id="UHenDtWm6OmOtwsL2xLt-114" value="Grant&lt;br&gt;System Access?" style="rhombus;whiteSpace=wrap;html=1;rounded=1;arcSize=0;" vertex="1" parent="UHenDtWm6OmOtwsL2xLt-34">
          <mxGeometry x="440" y="115" width="80" height="80" as="geometry" />
        </mxCell>
        <mxCell id="UHenDtWm6OmOtwsL2xLt-116" value="Send Rejection with Reason" style="whiteSpace=wrap;html=1;rounded=1;arcSize=0;" vertex="1" parent="UHenDtWm6OmOtwsL2xLt-34">
          <mxGeometry x="480" y="25" width="120" height="60" as="geometry" />
        </mxCell>
        <mxCell id="UHenDtWm6OmOtwsL2xLt-130" value="Send Confirmation" style="whiteSpace=wrap;html=1;rounded=1;arcSize=0;" vertex="1" parent="UHenDtWm6OmOtwsL2xLt-34">
          <mxGeometry x="697" y="125" width="120" height="60" as="geometry" />
        </mxCell>
        <mxCell id="UHenDtWm6OmOtwsL2xLt-133" value="" style="edgeStyle=orthogonalEdgeStyle;rounded=0;orthogonalLoop=1;jettySize=auto;html=1;" edge="1" parent="UHenDtWm6OmOtwsL2xLt-1" source="UHenDtWm6OmOtwsL2xLt-130" target="UHenDtWm6OmOtwsL2xLt-132">
          <mxGeometry relative="1" as="geometry" />
        </mxCell>
        <mxCell id="UHenDtWm6OmOtwsL2xLt-129" value="" style="edgeStyle=orthogonalEdgeStyle;rounded=0;orthogonalLoop=1;jettySize=auto;html=1;exitX=0.5;exitY=0;exitDx=0;exitDy=0;" edge="1" parent="1" source="UHenDtWm6OmOtwsL2xLt-127">
          <mxGeometry relative="1" as="geometry">
            <mxPoint x="440" y="338" as="sourcePoint" />
            <mxPoint x="320" y="270" as="targetPoint" />
            <Array as="points">
              <mxPoint x="550" y="332" />
              <mxPoint x="550" y="270" />
            </Array>
          </mxGeometry>
        </mxCell>
      </root>
    </mxGraphModel>
  </diagram>
  <diagram id="iz0tiApp_QFkkPuxvPnc" name="Activity 1 - Swimlane - revised">
    <mxGraphModel dx="2171" dy="1382" grid="1" gridSize="10" guides="1" tooltips="1" connect="1" arrows="1" fold="1" page="1" pageScale="1" pageWidth="827" pageHeight="1169" math="0" shadow="0">
      <root>
        <mxCell id="0" />
        <mxCell id="1" parent="0" />
        <mxCell id="uJeGCmthAhS5ds2qwSFM-1" value="Steps of Getting Access to Application by Creating Request" style="swimlane;html=1;childLayout=stackLayout;horizontal=1;startSize=20;horizontalStack=0;rounded=0;shadow=0;labelBackgroundColor=none;strokeWidth=1;fontFamily=Verdana;fontSize=9;align=center;" vertex="1" parent="1">
          <mxGeometry x="10" y="85" width="1066" height="2159" as="geometry" />
        </mxCell>
        <mxCell id="uJeGCmthAhS5ds2qwSFM-2" value="Requestor" style="swimlane;html=1;startSize=20;horizontal=0;fontSize=9;" vertex="1" parent="uJeGCmthAhS5ds2qwSFM-1">
          <mxGeometry y="20" width="1066" height="305" as="geometry" />
        </mxCell>
        <mxCell id="uirwoi4Nub8hmKKbR7Vn-2" value="" style="edgeStyle=orthogonalEdgeStyle;rounded=0;orthogonalLoop=1;jettySize=auto;html=1;fontSize=9;" edge="1" parent="uJeGCmthAhS5ds2qwSFM-2" source="uJeGCmthAhS5ds2qwSFM-4" target="uirwoi4Nub8hmKKbR7Vn-1">
          <mxGeometry relative="1" as="geometry" />
        </mxCell>
        <mxCell id="uJeGCmthAhS5ds2qwSFM-4" value="Fills in application form" style="rounded=1;whiteSpace=wrap;html=1;arcSize=50;fontSize=9;" vertex="1" parent="uJeGCmthAhS5ds2qwSFM-2">
          <mxGeometry x="30" y="15" width="120" height="60" as="geometry" />
        </mxCell>
        <mxCell id="uirwoi4Nub8hmKKbR7Vn-1" value="Supervisor approval required?" style="rhombus;whiteSpace=wrap;html=1;rounded=1;arcSize=0;fontSize=9;" vertex="1" parent="uJeGCmthAhS5ds2qwSFM-2">
          <mxGeometry x="200" y="15" width="100" height="105" as="geometry" />
        </mxCell>
        <mxCell id="042qckETLgSAEP8Q8aaq-14" value="" style="edgeStyle=orthogonalEdgeStyle;rounded=0;orthogonalLoop=1;jettySize=auto;html=1;fontSize=9;" edge="1" parent="uJeGCmthAhS5ds2qwSFM-2" source="042qckETLgSAEP8Q8aaq-11" target="042qckETLgSAEP8Q8aaq-13">
          <mxGeometry relative="1" as="geometry" />
        </mxCell>
        <mxCell id="042qckETLgSAEP8Q8aaq-11" value="Receive Rejection Notification" style="whiteSpace=wrap;html=1;rounded=1;arcSize=0;fontSize=9;" vertex="1" parent="uJeGCmthAhS5ds2qwSFM-2">
          <mxGeometry x="350" y="235" width="120" height="60" as="geometry" />
        </mxCell>
        <mxCell id="042qckETLgSAEP8Q8aaq-13" value="Access Denied" style="whiteSpace=wrap;html=1;rounded=1;arcSize=50;fontSize=9;" vertex="1" parent="uJeGCmthAhS5ds2qwSFM-2">
          <mxGeometry x="521" y="235" width="120" height="60" as="geometry" />
        </mxCell>
        <mxCell id="042qckETLgSAEP8Q8aaq-32" value="" style="edgeStyle=orthogonalEdgeStyle;rounded=0;orthogonalLoop=1;jettySize=auto;html=1;fontSize=9;" edge="1" parent="uJeGCmthAhS5ds2qwSFM-2" source="042qckETLgSAEP8Q8aaq-30" target="042qckETLgSAEP8Q8aaq-13">
          <mxGeometry relative="1" as="geometry" />
        </mxCell>
        <mxCell id="042qckETLgSAEP8Q8aaq-30" value="Receive Rejection" style="whiteSpace=wrap;html=1;rounded=1;arcSize=0;fontSize=9;" vertex="1" parent="uJeGCmthAhS5ds2qwSFM-2">
          <mxGeometry x="678" y="235" width="120" height="60" as="geometry" />
        </mxCell>
        <mxCell id="042qckETLgSAEP8Q8aaq-46" value="" style="edgeStyle=orthogonalEdgeStyle;rounded=0;orthogonalLoop=1;jettySize=auto;html=1;entryX=0.5;entryY=1;entryDx=0;entryDy=0;fontSize=9;" edge="1" parent="uJeGCmthAhS5ds2qwSFM-2" source="042qckETLgSAEP8Q8aaq-41" target="042qckETLgSAEP8Q8aaq-44">
          <mxGeometry relative="1" as="geometry">
            <mxPoint x="880" y="155" as="targetPoint" />
          </mxGeometry>
        </mxCell>
        <mxCell id="042qckETLgSAEP8Q8aaq-41" value="Receive Confirmation" style="whiteSpace=wrap;html=1;rounded=1;arcSize=0;fontSize=9;" vertex="1" parent="uJeGCmthAhS5ds2qwSFM-2">
          <mxGeometry x="820" y="235" width="120" height="60" as="geometry" />
        </mxCell>
        <mxCell id="042qckETLgSAEP8Q8aaq-44" value="Access Granted" style="rounded=1;whiteSpace=wrap;html=1;arcSize=50;fontSize=9;" vertex="1" parent="uJeGCmthAhS5ds2qwSFM-2">
          <mxGeometry x="810" y="15" width="120" height="60" as="geometry" />
        </mxCell>
        <mxCell id="uJeGCmthAhS5ds2qwSFM-19" value="Supervisor" style="swimlane;html=1;startSize=20;horizontal=0;fontSize=9;" vertex="1" parent="uJeGCmthAhS5ds2qwSFM-1">
          <mxGeometry y="325" width="1066" height="390" as="geometry" />
        </mxCell>
        <mxCell id="042qckETLgSAEP8Q8aaq-3" value="" style="edgeStyle=orthogonalEdgeStyle;rounded=0;orthogonalLoop=1;jettySize=auto;html=1;fontSize=9;" edge="1" parent="uJeGCmthAhS5ds2qwSFM-19" source="uJeGCmthAhS5ds2qwSFM-21" target="042qckETLgSAEP8Q8aaq-2">
          <mxGeometry relative="1" as="geometry" />
        </mxCell>
        <mxCell id="uJeGCmthAhS5ds2qwSFM-21" value="Review Request" style="whiteSpace=wrap;html=1;rounded=1;arcSize=0;fontSize=9;" vertex="1" parent="uJeGCmthAhS5ds2qwSFM-19">
          <mxGeometry x="190" y="30" width="120" height="60" as="geometry" />
        </mxCell>
        <mxCell id="042qckETLgSAEP8Q8aaq-5" value="Yes" style="edgeStyle=orthogonalEdgeStyle;rounded=0;orthogonalLoop=1;jettySize=auto;html=1;fontSize=9;" edge="1" parent="uJeGCmthAhS5ds2qwSFM-19" source="042qckETLgSAEP8Q8aaq-2" target="042qckETLgSAEP8Q8aaq-4">
          <mxGeometry relative="1" as="geometry" />
        </mxCell>
        <mxCell id="042qckETLgSAEP8Q8aaq-7" value="" style="edgeStyle=orthogonalEdgeStyle;rounded=0;orthogonalLoop=1;jettySize=auto;html=1;fontSize=9;" edge="1" parent="uJeGCmthAhS5ds2qwSFM-19" source="042qckETLgSAEP8Q8aaq-2" target="042qckETLgSAEP8Q8aaq-6">
          <mxGeometry relative="1" as="geometry" />
        </mxCell>
        <mxCell id="042qckETLgSAEP8Q8aaq-8" value="No" style="edgeLabel;html=1;align=center;verticalAlign=middle;resizable=0;points=[];fontSize=9;" vertex="1" connectable="0" parent="042qckETLgSAEP8Q8aaq-7">
          <mxGeometry x="-0.0205" y="1" relative="1" as="geometry">
            <mxPoint as="offset" />
          </mxGeometry>
        </mxCell>
        <mxCell id="042qckETLgSAEP8Q8aaq-2" value="Is Access&lt;br style=&quot;font-size: 9px;&quot;&gt;Required?" style="rhombus;whiteSpace=wrap;html=1;rounded=1;arcSize=0;fontSize=9;" vertex="1" parent="uJeGCmthAhS5ds2qwSFM-19">
          <mxGeometry x="210" y="160" width="80" height="80" as="geometry" />
        </mxCell>
        <mxCell id="042qckETLgSAEP8Q8aaq-4" value="Approve Request" style="whiteSpace=wrap;html=1;rounded=1;arcSize=0;fontSize=9;" vertex="1" parent="uJeGCmthAhS5ds2qwSFM-19">
          <mxGeometry x="190" y="310" width="120" height="60" as="geometry" />
        </mxCell>
        <mxCell id="042qckETLgSAEP8Q8aaq-10" value="" style="edgeStyle=orthogonalEdgeStyle;rounded=0;orthogonalLoop=1;jettySize=auto;html=1;fontSize=9;" edge="1" parent="uJeGCmthAhS5ds2qwSFM-19" source="042qckETLgSAEP8Q8aaq-6" target="042qckETLgSAEP8Q8aaq-9">
          <mxGeometry relative="1" as="geometry" />
        </mxCell>
        <mxCell id="042qckETLgSAEP8Q8aaq-6" value="Reject Request with Reason" style="whiteSpace=wrap;html=1;rounded=1;arcSize=0;fontSize=9;" vertex="1" parent="uJeGCmthAhS5ds2qwSFM-19">
          <mxGeometry x="350" y="170" width="120" height="60" as="geometry" />
        </mxCell>
        <mxCell id="042qckETLgSAEP8Q8aaq-9" value="Send Rejection Message" style="whiteSpace=wrap;html=1;rounded=1;arcSize=0;fontSize=9;" vertex="1" parent="uJeGCmthAhS5ds2qwSFM-19">
          <mxGeometry x="350" y="90" width="120" height="60" as="geometry" />
        </mxCell>
        <mxCell id="uJeGCmthAhS5ds2qwSFM-30" value="Internal Access Team" style="swimlane;html=1;startSize=20;horizontal=0;fontSize=9;" vertex="1" parent="uJeGCmthAhS5ds2qwSFM-1">
          <mxGeometry y="715" width="1066" height="559" as="geometry" />
        </mxCell>
        <mxCell id="042qckETLgSAEP8Q8aaq-18" value="" style="edgeStyle=orthogonalEdgeStyle;rounded=0;orthogonalLoop=1;jettySize=auto;html=1;fontSize=9;" edge="1" parent="uJeGCmthAhS5ds2qwSFM-30" target="042qckETLgSAEP8Q8aaq-17">
          <mxGeometry relative="1" as="geometry">
            <mxPoint x="510" y="149" as="sourcePoint" />
          </mxGeometry>
        </mxCell>
        <mxCell id="yApV3B7Sn5-VuzM9z3x9-2" value="Review the Application Form" style="whiteSpace=wrap;html=1;rounded=1;arcSize=0;fontSize=9;" vertex="1" parent="uJeGCmthAhS5ds2qwSFM-30">
          <mxGeometry x="450" y="90" width="120" height="60" as="geometry" />
        </mxCell>
        <mxCell id="042qckETLgSAEP8Q8aaq-20" value="" style="edgeStyle=orthogonalEdgeStyle;rounded=0;orthogonalLoop=1;jettySize=auto;html=1;fontSize=9;" edge="1" parent="uJeGCmthAhS5ds2qwSFM-30" source="042qckETLgSAEP8Q8aaq-17" target="042qckETLgSAEP8Q8aaq-19">
          <mxGeometry relative="1" as="geometry" />
        </mxCell>
        <mxCell id="042qckETLgSAEP8Q8aaq-21" value="No" style="edgeLabel;html=1;align=center;verticalAlign=middle;resizable=0;points=[];fontSize=9;" vertex="1" connectable="0" parent="042qckETLgSAEP8Q8aaq-20">
          <mxGeometry x="-0.3" y="5" relative="1" as="geometry">
            <mxPoint x="-1" as="offset" />
          </mxGeometry>
        </mxCell>
        <mxCell id="042qckETLgSAEP8Q8aaq-25" value="Yes" style="edgeStyle=orthogonalEdgeStyle;rounded=0;orthogonalLoop=1;jettySize=auto;html=1;fontSize=9;" edge="1" parent="uJeGCmthAhS5ds2qwSFM-30" source="042qckETLgSAEP8Q8aaq-17" target="042qckETLgSAEP8Q8aaq-24">
          <mxGeometry relative="1" as="geometry" />
        </mxCell>
        <mxCell id="042qckETLgSAEP8Q8aaq-17" value="Are all fields complete?" style="rhombus;whiteSpace=wrap;html=1;rounded=1;arcSize=0;fontSize=9;" vertex="1" parent="uJeGCmthAhS5ds2qwSFM-30">
          <mxGeometry x="470" y="189" width="80" height="80" as="geometry" />
        </mxCell>
        <mxCell id="042qckETLgSAEP8Q8aaq-19" value="Request Corrections and Send correction request" style="whiteSpace=wrap;html=1;rounded=1;arcSize=0;fontSize=9;" vertex="1" parent="uJeGCmthAhS5ds2qwSFM-30">
          <mxGeometry x="450" y="319" width="120" height="60" as="geometry" />
        </mxCell>
        <mxCell id="042qckETLgSAEP8Q8aaq-27" value="No" style="edgeStyle=orthogonalEdgeStyle;rounded=0;orthogonalLoop=1;jettySize=auto;html=1;fontSize=9;" edge="1" parent="uJeGCmthAhS5ds2qwSFM-30" source="042qckETLgSAEP8Q8aaq-24" target="042qckETLgSAEP8Q8aaq-26">
          <mxGeometry relative="1" as="geometry" />
        </mxCell>
        <mxCell id="042qckETLgSAEP8Q8aaq-34" value="" style="edgeStyle=orthogonalEdgeStyle;rounded=0;orthogonalLoop=1;jettySize=auto;html=1;fontSize=9;" edge="1" parent="uJeGCmthAhS5ds2qwSFM-30" source="042qckETLgSAEP8Q8aaq-24" target="042qckETLgSAEP8Q8aaq-33">
          <mxGeometry relative="1" as="geometry" />
        </mxCell>
        <mxCell id="042qckETLgSAEP8Q8aaq-35" value="Yes" style="edgeLabel;html=1;align=center;verticalAlign=middle;resizable=0;points=[];fontSize=9;" vertex="1" connectable="0" parent="042qckETLgSAEP8Q8aaq-34">
          <mxGeometry x="-0.2045" y="-1" relative="1" as="geometry">
            <mxPoint x="-1" as="offset" />
          </mxGeometry>
        </mxCell>
        <mxCell id="042qckETLgSAEP8Q8aaq-24" value="Is Access allowed by Application Rules?" style="rhombus;whiteSpace=wrap;html=1;rounded=1;arcSize=0;fontSize=9;" vertex="1" parent="uJeGCmthAhS5ds2qwSFM-30">
          <mxGeometry x="620" y="189" width="90" height="80" as="geometry" />
        </mxCell>
        <mxCell id="042qckETLgSAEP8Q8aaq-26" value="Reject Request&amp;nbsp;" style="whiteSpace=wrap;html=1;rounded=1;arcSize=0;fontSize=9;" vertex="1" parent="uJeGCmthAhS5ds2qwSFM-30">
          <mxGeometry x="603" y="369" width="120" height="60" as="geometry" />
        </mxCell>
        <mxCell id="042qckETLgSAEP8Q8aaq-28" value="Send Rejection Message" style="whiteSpace=wrap;html=1;rounded=1;arcSize=0;fontSize=9;" vertex="1" parent="uJeGCmthAhS5ds2qwSFM-30">
          <mxGeometry x="710" y="259" width="120" height="60" as="geometry" />
        </mxCell>
        <mxCell id="042qckETLgSAEP8Q8aaq-29" value="" style="edgeStyle=orthogonalEdgeStyle;rounded=0;orthogonalLoop=1;jettySize=auto;html=1;fontSize=9;" edge="1" parent="uJeGCmthAhS5ds2qwSFM-30" source="042qckETLgSAEP8Q8aaq-26" target="042qckETLgSAEP8Q8aaq-28">
          <mxGeometry relative="1" as="geometry">
            <Array as="points">
              <mxPoint x="760" y="399" />
              <mxPoint x="760" y="344" />
              <mxPoint x="770" y="344" />
            </Array>
          </mxGeometry>
        </mxCell>
        <mxCell id="042qckETLgSAEP8Q8aaq-37" value="" style="edgeStyle=orthogonalEdgeStyle;rounded=0;orthogonalLoop=1;jettySize=auto;html=1;fontSize=9;" edge="1" parent="uJeGCmthAhS5ds2qwSFM-30" source="042qckETLgSAEP8Q8aaq-33" target="042qckETLgSAEP8Q8aaq-36">
          <mxGeometry relative="1" as="geometry" />
        </mxCell>
        <mxCell id="042qckETLgSAEP8Q8aaq-38" value="No" style="edgeLabel;html=1;align=center;verticalAlign=middle;resizable=0;points=[];fontSize=9;" vertex="1" connectable="0" parent="042qckETLgSAEP8Q8aaq-37">
          <mxGeometry x="-0.2667" y="-1" relative="1" as="geometry">
            <mxPoint as="offset" />
          </mxGeometry>
        </mxCell>
        <mxCell id="042qckETLgSAEP8Q8aaq-50" value="Yes" style="edgeStyle=orthogonalEdgeStyle;rounded=0;orthogonalLoop=1;jettySize=auto;html=1;fontSize=9;" edge="1" parent="uJeGCmthAhS5ds2qwSFM-30" source="042qckETLgSAEP8Q8aaq-33" target="042qckETLgSAEP8Q8aaq-49">
          <mxGeometry relative="1" as="geometry" />
        </mxCell>
        <mxCell id="042qckETLgSAEP8Q8aaq-33" value="Is it a&lt;br style=&quot;font-size: 9px;&quot;&gt;3rd Party Application?" style="rhombus;whiteSpace=wrap;html=1;rounded=1;arcSize=0;fontSize=9;" vertex="1" parent="uJeGCmthAhS5ds2qwSFM-30">
          <mxGeometry x="825" y="189" width="90" height="80" as="geometry" />
        </mxCell>
        <mxCell id="042qckETLgSAEP8Q8aaq-40" value="" style="edgeStyle=orthogonalEdgeStyle;rounded=0;orthogonalLoop=1;jettySize=auto;html=1;fontSize=9;" edge="1" parent="uJeGCmthAhS5ds2qwSFM-30" source="042qckETLgSAEP8Q8aaq-36" target="042qckETLgSAEP8Q8aaq-39">
          <mxGeometry relative="1" as="geometry" />
        </mxCell>
        <mxCell id="042qckETLgSAEP8Q8aaq-36" value="Grant System Access" style="whiteSpace=wrap;html=1;rounded=1;arcSize=0;fontSize=9;" vertex="1" parent="uJeGCmthAhS5ds2qwSFM-30">
          <mxGeometry x="810" y="90" width="120" height="60" as="geometry" />
        </mxCell>
        <mxCell id="042qckETLgSAEP8Q8aaq-39" value="Send Confirmation" style="whiteSpace=wrap;html=1;rounded=1;arcSize=0;fontSize=9;" vertex="1" parent="uJeGCmthAhS5ds2qwSFM-30">
          <mxGeometry x="820" width="120" height="60" as="geometry" />
        </mxCell>
        <mxCell id="042qckETLgSAEP8Q8aaq-49" value="Send Access Request to 3rd Party App team" style="whiteSpace=wrap;html=1;rounded=1;arcSize=0;fontSize=9;" vertex="1" parent="uJeGCmthAhS5ds2qwSFM-30">
          <mxGeometry x="810" y="359" width="120" height="60" as="geometry" />
        </mxCell>
        <mxCell id="042qckETLgSAEP8Q8aaq-68" value="" style="edgeStyle=orthogonalEdgeStyle;rounded=0;orthogonalLoop=1;jettySize=auto;html=1;fontSize=9;" edge="1" parent="uJeGCmthAhS5ds2qwSFM-30" source="042qckETLgSAEP8Q8aaq-60" target="042qckETLgSAEP8Q8aaq-26">
          <mxGeometry relative="1" as="geometry" />
        </mxCell>
        <mxCell id="042qckETLgSAEP8Q8aaq-60" value="Receive Rejection" style="whiteSpace=wrap;html=1;rounded=1;arcSize=0;fontSize=9;" vertex="1" parent="uJeGCmthAhS5ds2qwSFM-30">
          <mxGeometry x="620" y="460" width="120" height="60" as="geometry" />
        </mxCell>
        <mxCell id="042qckETLgSAEP8Q8aaq-72" value="Internal Access Team" style="swimlane;html=1;startSize=20;horizontal=0;fontSize=9;" vertex="1" parent="uJeGCmthAhS5ds2qwSFM-1">
          <mxGeometry y="1274" width="1066" height="559" as="geometry" />
        </mxCell>
        <mxCell id="042qckETLgSAEP8Q8aaq-73" value="" style="edgeStyle=orthogonalEdgeStyle;rounded=0;orthogonalLoop=1;jettySize=auto;html=1;fontSize=9;" edge="1" parent="042qckETLgSAEP8Q8aaq-72" target="042qckETLgSAEP8Q8aaq-78">
          <mxGeometry relative="1" as="geometry">
            <mxPoint x="510" y="149" as="sourcePoint" />
          </mxGeometry>
        </mxCell>
        <mxCell id="042qckETLgSAEP8Q8aaq-74" value="Review the Application Form" style="whiteSpace=wrap;html=1;rounded=1;arcSize=0;fontSize=9;" vertex="1" parent="042qckETLgSAEP8Q8aaq-72">
          <mxGeometry x="450" y="90" width="120" height="60" as="geometry" />
        </mxCell>
        <mxCell id="042qckETLgSAEP8Q8aaq-75" value="" style="edgeStyle=orthogonalEdgeStyle;rounded=0;orthogonalLoop=1;jettySize=auto;html=1;fontSize=9;" edge="1" parent="042qckETLgSAEP8Q8aaq-72" source="042qckETLgSAEP8Q8aaq-78" target="042qckETLgSAEP8Q8aaq-79">
          <mxGeometry relative="1" as="geometry" />
        </mxCell>
        <mxCell id="042qckETLgSAEP8Q8aaq-76" value="No" style="edgeLabel;html=1;align=center;verticalAlign=middle;resizable=0;points=[];fontSize=9;" vertex="1" connectable="0" parent="042qckETLgSAEP8Q8aaq-75">
          <mxGeometry x="-0.3" y="5" relative="1" as="geometry">
            <mxPoint x="-1" as="offset" />
          </mxGeometry>
        </mxCell>
        <mxCell id="042qckETLgSAEP8Q8aaq-77" value="Yes" style="edgeStyle=orthogonalEdgeStyle;rounded=0;orthogonalLoop=1;jettySize=auto;html=1;fontSize=9;" edge="1" parent="042qckETLgSAEP8Q8aaq-72" source="042qckETLgSAEP8Q8aaq-78" target="042qckETLgSAEP8Q8aaq-83">
          <mxGeometry relative="1" as="geometry" />
        </mxCell>
        <mxCell id="042qckETLgSAEP8Q8aaq-78" value="Are all fields complete?" style="rhombus;whiteSpace=wrap;html=1;rounded=1;arcSize=0;fontSize=9;" vertex="1" parent="042qckETLgSAEP8Q8aaq-72">
          <mxGeometry x="470" y="189" width="80" height="80" as="geometry" />
        </mxCell>
        <mxCell id="042qckETLgSAEP8Q8aaq-79" value="Request Corrections and Send correction request" style="whiteSpace=wrap;html=1;rounded=1;arcSize=0;fontSize=9;" vertex="1" parent="042qckETLgSAEP8Q8aaq-72">
          <mxGeometry x="450" y="319" width="120" height="60" as="geometry" />
        </mxCell>
        <mxCell id="042qckETLgSAEP8Q8aaq-80" value="No" style="edgeStyle=orthogonalEdgeStyle;rounded=0;orthogonalLoop=1;jettySize=auto;html=1;fontSize=9;" edge="1" parent="042qckETLgSAEP8Q8aaq-72" source="042qckETLgSAEP8Q8aaq-83" target="042qckETLgSAEP8Q8aaq-84">
          <mxGeometry relative="1" as="geometry" />
        </mxCell>
        <mxCell id="042qckETLgSAEP8Q8aaq-81" value="" style="edgeStyle=orthogonalEdgeStyle;rounded=0;orthogonalLoop=1;jettySize=auto;html=1;fontSize=9;" edge="1" parent="042qckETLgSAEP8Q8aaq-72" source="042qckETLgSAEP8Q8aaq-83" target="042qckETLgSAEP8Q8aaq-90">
          <mxGeometry relative="1" as="geometry" />
        </mxCell>
        <mxCell id="042qckETLgSAEP8Q8aaq-82" value="Yes" style="edgeLabel;html=1;align=center;verticalAlign=middle;resizable=0;points=[];fontSize=9;" vertex="1" connectable="0" parent="042qckETLgSAEP8Q8aaq-81">
          <mxGeometry x="-0.2045" y="-1" relative="1" as="geometry">
            <mxPoint x="-1" as="offset" />
          </mxGeometry>
        </mxCell>
        <mxCell id="042qckETLgSAEP8Q8aaq-83" value="Is Access allowed by Application Rules?" style="rhombus;whiteSpace=wrap;html=1;rounded=1;arcSize=0;fontSize=9;" vertex="1" parent="042qckETLgSAEP8Q8aaq-72">
          <mxGeometry x="620" y="189" width="90" height="80" as="geometry" />
        </mxCell>
        <mxCell id="042qckETLgSAEP8Q8aaq-84" value="Reject Request&amp;nbsp;" style="whiteSpace=wrap;html=1;rounded=1;arcSize=0;fontSize=9;" vertex="1" parent="042qckETLgSAEP8Q8aaq-72">
          <mxGeometry x="603" y="369" width="120" height="60" as="geometry" />
        </mxCell>
        <mxCell id="042qckETLgSAEP8Q8aaq-85" value="Send Rejection Message" style="whiteSpace=wrap;html=1;rounded=1;arcSize=0;fontSize=9;" vertex="1" parent="042qckETLgSAEP8Q8aaq-72">
          <mxGeometry x="710" y="259" width="120" height="60" as="geometry" />
        </mxCell>
        <mxCell id="042qckETLgSAEP8Q8aaq-86" value="" style="edgeStyle=orthogonalEdgeStyle;rounded=0;orthogonalLoop=1;jettySize=auto;html=1;fontSize=9;" edge="1" parent="042qckETLgSAEP8Q8aaq-72" source="042qckETLgSAEP8Q8aaq-84" target="042qckETLgSAEP8Q8aaq-85">
          <mxGeometry relative="1" as="geometry">
            <Array as="points">
              <mxPoint x="760" y="399" />
              <mxPoint x="760" y="344" />
              <mxPoint x="770" y="344" />
            </Array>
          </mxGeometry>
        </mxCell>
        <mxCell id="042qckETLgSAEP8Q8aaq-87" value="" style="edgeStyle=orthogonalEdgeStyle;rounded=0;orthogonalLoop=1;jettySize=auto;html=1;fontSize=9;" edge="1" parent="042qckETLgSAEP8Q8aaq-72" source="042qckETLgSAEP8Q8aaq-90" target="042qckETLgSAEP8Q8aaq-92">
          <mxGeometry relative="1" as="geometry" />
        </mxCell>
        <mxCell id="042qckETLgSAEP8Q8aaq-88" value="No" style="edgeLabel;html=1;align=center;verticalAlign=middle;resizable=0;points=[];fontSize=9;" vertex="1" connectable="0" parent="042qckETLgSAEP8Q8aaq-87">
          <mxGeometry x="-0.2667" y="-1" relative="1" as="geometry">
            <mxPoint as="offset" />
          </mxGeometry>
        </mxCell>
        <mxCell id="042qckETLgSAEP8Q8aaq-89" value="Yes" style="edgeStyle=orthogonalEdgeStyle;rounded=0;orthogonalLoop=1;jettySize=auto;html=1;fontSize=9;" edge="1" parent="042qckETLgSAEP8Q8aaq-72" source="042qckETLgSAEP8Q8aaq-90" target="042qckETLgSAEP8Q8aaq-94">
          <mxGeometry relative="1" as="geometry" />
        </mxCell>
        <mxCell id="042qckETLgSAEP8Q8aaq-90" value="Is it a&lt;br style=&quot;font-size: 9px;&quot;&gt;3rd Party Application?" style="rhombus;whiteSpace=wrap;html=1;rounded=1;arcSize=0;fontSize=9;" vertex="1" parent="042qckETLgSAEP8Q8aaq-72">
          <mxGeometry x="825" y="189" width="90" height="80" as="geometry" />
        </mxCell>
        <mxCell id="042qckETLgSAEP8Q8aaq-91" value="" style="edgeStyle=orthogonalEdgeStyle;rounded=0;orthogonalLoop=1;jettySize=auto;html=1;fontSize=9;" edge="1" parent="042qckETLgSAEP8Q8aaq-72" source="042qckETLgSAEP8Q8aaq-92" target="042qckETLgSAEP8Q8aaq-93">
          <mxGeometry relative="1" as="geometry" />
        </mxCell>
        <mxCell id="042qckETLgSAEP8Q8aaq-92" value="Grant System Access" style="whiteSpace=wrap;html=1;rounded=1;arcSize=0;fontSize=9;" vertex="1" parent="042qckETLgSAEP8Q8aaq-72">
          <mxGeometry x="810" y="90" width="120" height="60" as="geometry" />
        </mxCell>
        <mxCell id="042qckETLgSAEP8Q8aaq-93" value="Send Confirmation" style="whiteSpace=wrap;html=1;rounded=1;arcSize=0;fontSize=9;" vertex="1" parent="042qckETLgSAEP8Q8aaq-72">
          <mxGeometry x="820" width="120" height="60" as="geometry" />
        </mxCell>
        <mxCell id="042qckETLgSAEP8Q8aaq-94" value="Send Access Request to 3rd Party App team" style="whiteSpace=wrap;html=1;rounded=1;arcSize=0;fontSize=9;" vertex="1" parent="042qckETLgSAEP8Q8aaq-72">
          <mxGeometry x="810" y="359" width="120" height="60" as="geometry" />
        </mxCell>
        <mxCell id="042qckETLgSAEP8Q8aaq-95" value="" style="edgeStyle=orthogonalEdgeStyle;rounded=0;orthogonalLoop=1;jettySize=auto;html=1;fontSize=9;" edge="1" parent="042qckETLgSAEP8Q8aaq-72" source="042qckETLgSAEP8Q8aaq-96" target="042qckETLgSAEP8Q8aaq-84">
          <mxGeometry relative="1" as="geometry" />
        </mxCell>
        <mxCell id="042qckETLgSAEP8Q8aaq-96" value="Receive Rejection" style="whiteSpace=wrap;html=1;rounded=1;arcSize=0;fontSize=9;" vertex="1" parent="042qckETLgSAEP8Q8aaq-72">
          <mxGeometry x="620" y="460" width="120" height="60" as="geometry" />
        </mxCell>
        <mxCell id="uJeGCmthAhS5ds2qwSFM-70" value="3rd party app team" style="swimlane;html=1;startSize=20;horizontal=0;fontSize=9;" vertex="1" parent="uJeGCmthAhS5ds2qwSFM-1">
          <mxGeometry y="1833" width="1066" height="326" as="geometry" />
        </mxCell>
        <mxCell id="042qckETLgSAEP8Q8aaq-54" value="" style="edgeStyle=orthogonalEdgeStyle;rounded=0;orthogonalLoop=1;jettySize=auto;html=1;fontSize=9;" edge="1" parent="uJeGCmthAhS5ds2qwSFM-70" source="042qckETLgSAEP8Q8aaq-51" target="042qckETLgSAEP8Q8aaq-53">
          <mxGeometry relative="1" as="geometry" />
        </mxCell>
        <mxCell id="042qckETLgSAEP8Q8aaq-51" value="&lt;br style=&quot;font-size: 9px;&quot;&gt;Receive Access Request&lt;br style=&quot;font-size: 9px;&quot;&gt;" style="whiteSpace=wrap;html=1;rounded=1;arcSize=0;fontSize=9;" vertex="1" parent="uJeGCmthAhS5ds2qwSFM-70">
          <mxGeometry x="746" y="11" width="120" height="60" as="geometry" />
        </mxCell>
        <mxCell id="042qckETLgSAEP8Q8aaq-56" value="" style="edgeStyle=orthogonalEdgeStyle;rounded=0;orthogonalLoop=1;jettySize=auto;html=1;fontSize=9;" edge="1" parent="uJeGCmthAhS5ds2qwSFM-70" source="042qckETLgSAEP8Q8aaq-53" target="042qckETLgSAEP8Q8aaq-55">
          <mxGeometry relative="1" as="geometry" />
        </mxCell>
        <mxCell id="042qckETLgSAEP8Q8aaq-53" value="Review Request" style="whiteSpace=wrap;html=1;rounded=1;arcSize=0;fontSize=9;" vertex="1" parent="uJeGCmthAhS5ds2qwSFM-70">
          <mxGeometry x="746" y="91" width="120" height="60" as="geometry" />
        </mxCell>
        <mxCell id="042qckETLgSAEP8Q8aaq-55" value="Grant System Access?" style="rhombus;whiteSpace=wrap;html=1;rounded=1;arcSize=0;fontSize=9;" vertex="1" parent="uJeGCmthAhS5ds2qwSFM-70">
          <mxGeometry x="960" y="111" width="80" height="80" as="geometry" />
        </mxCell>
        <mxCell id="uirwoi4Nub8hmKKbR7Vn-4" value="" style="edgeStyle=orthogonalEdgeStyle;rounded=0;orthogonalLoop=1;jettySize=auto;html=1;entryX=0.5;entryY=0;entryDx=0;entryDy=0;fontSize=9;" edge="1" parent="uJeGCmthAhS5ds2qwSFM-1" source="uirwoi4Nub8hmKKbR7Vn-1" target="uJeGCmthAhS5ds2qwSFM-21">
          <mxGeometry relative="1" as="geometry">
            <mxPoint x="250" y="220" as="targetPoint" />
          </mxGeometry>
        </mxCell>
        <mxCell id="yApV3B7Sn5-VuzM9z3x9-1" value="Yes" style="edgeLabel;html=1;align=center;verticalAlign=middle;resizable=0;points=[];fontSize=9;" vertex="1" connectable="0" parent="uirwoi4Nub8hmKKbR7Vn-4">
          <mxGeometry x="-0.0712" y="-6" relative="1" as="geometry">
            <mxPoint as="offset" />
          </mxGeometry>
        </mxCell>
        <mxCell id="042qckETLgSAEP8Q8aaq-12" value="" style="edgeStyle=orthogonalEdgeStyle;rounded=0;orthogonalLoop=1;jettySize=auto;html=1;fontSize=9;" edge="1" parent="uJeGCmthAhS5ds2qwSFM-1" source="042qckETLgSAEP8Q8aaq-9" target="042qckETLgSAEP8Q8aaq-11">
          <mxGeometry relative="1" as="geometry" />
        </mxCell>
        <mxCell id="yApV3B7Sn5-VuzM9z3x9-3" value="" style="edgeStyle=orthogonalEdgeStyle;rounded=0;orthogonalLoop=1;jettySize=auto;html=1;fontSize=9;" edge="1" parent="uJeGCmthAhS5ds2qwSFM-1" source="uirwoi4Nub8hmKKbR7Vn-1" target="yApV3B7Sn5-VuzM9z3x9-2">
          <mxGeometry relative="1" as="geometry" />
        </mxCell>
        <mxCell id="042qckETLgSAEP8Q8aaq-1" value="No" style="edgeLabel;html=1;align=center;verticalAlign=middle;resizable=0;points=[];fontSize=9;" vertex="1" connectable="0" parent="yApV3B7Sn5-VuzM9z3x9-3">
          <mxGeometry x="-0.2264" y="2" relative="1" as="geometry">
            <mxPoint x="-1" as="offset" />
          </mxGeometry>
        </mxCell>
        <mxCell id="042qckETLgSAEP8Q8aaq-16" value="" style="edgeStyle=orthogonalEdgeStyle;rounded=0;orthogonalLoop=1;jettySize=auto;html=1;entryX=0;entryY=0.5;entryDx=0;entryDy=0;exitX=0.424;exitY=1.018;exitDx=0;exitDy=0;exitPerimeter=0;fontSize=9;" edge="1" parent="uJeGCmthAhS5ds2qwSFM-1" source="042qckETLgSAEP8Q8aaq-4" target="yApV3B7Sn5-VuzM9z3x9-2">
          <mxGeometry relative="1" as="geometry">
            <mxPoint x="250" y="774.9999999999998" as="targetPoint" />
            <Array as="points">
              <mxPoint x="241" y="835" />
            </Array>
          </mxGeometry>
        </mxCell>
        <mxCell id="042qckETLgSAEP8Q8aaq-23" value="" style="edgeStyle=orthogonalEdgeStyle;rounded=0;orthogonalLoop=1;jettySize=auto;html=1;entryX=0.5;entryY=1;entryDx=0;entryDy=0;fontSize=9;" edge="1" parent="uJeGCmthAhS5ds2qwSFM-1" source="042qckETLgSAEP8Q8aaq-19" target="uJeGCmthAhS5ds2qwSFM-4">
          <mxGeometry relative="1" as="geometry">
            <mxPoint x="110" y="225" as="targetPoint" />
          </mxGeometry>
        </mxCell>
        <mxCell id="042qckETLgSAEP8Q8aaq-31" value="" style="edgeStyle=orthogonalEdgeStyle;rounded=0;orthogonalLoop=1;jettySize=auto;html=1;fontSize=9;" edge="1" parent="uJeGCmthAhS5ds2qwSFM-1" source="042qckETLgSAEP8Q8aaq-28" target="042qckETLgSAEP8Q8aaq-30">
          <mxGeometry relative="1" as="geometry" />
        </mxCell>
        <mxCell id="042qckETLgSAEP8Q8aaq-42" value="" style="edgeStyle=orthogonalEdgeStyle;rounded=0;orthogonalLoop=1;jettySize=auto;html=1;fontSize=9;" edge="1" parent="uJeGCmthAhS5ds2qwSFM-1" source="042qckETLgSAEP8Q8aaq-39" target="042qckETLgSAEP8Q8aaq-41">
          <mxGeometry relative="1" as="geometry" />
        </mxCell>
        <mxCell id="042qckETLgSAEP8Q8aaq-52" value="" style="edgeStyle=orthogonalEdgeStyle;rounded=0;orthogonalLoop=1;jettySize=auto;html=1;fontSize=9;" edge="1" parent="uJeGCmthAhS5ds2qwSFM-1" source="042qckETLgSAEP8Q8aaq-49" target="042qckETLgSAEP8Q8aaq-51">
          <mxGeometry relative="1" as="geometry" />
        </mxCell>
        <mxCell id="042qckETLgSAEP8Q8aaq-70" value="" style="edgeStyle=orthogonalEdgeStyle;rounded=0;orthogonalLoop=1;jettySize=auto;html=1;entryX=1;entryY=0.5;entryDx=0;entryDy=0;fontSize=9;" edge="1" parent="uJeGCmthAhS5ds2qwSFM-1" source="042qckETLgSAEP8Q8aaq-55" target="042qckETLgSAEP8Q8aaq-39">
          <mxGeometry relative="1" as="geometry">
            <mxPoint x="1000" y="1295" as="targetPoint" />
            <Array as="points">
              <mxPoint x="1000" y="1080" />
              <mxPoint x="960" y="1080" />
              <mxPoint x="960" y="745" />
            </Array>
          </mxGeometry>
        </mxCell>
        <mxCell id="042qckETLgSAEP8Q8aaq-71" value="Yes" style="edgeLabel;html=1;align=center;verticalAlign=middle;resizable=0;points=[];fontSize=9;" vertex="1" connectable="0" parent="042qckETLgSAEP8Q8aaq-70">
          <mxGeometry x="0.2919" y="3" relative="1" as="geometry">
            <mxPoint y="1" as="offset" />
          </mxGeometry>
        </mxCell>
        <mxCell id="042qckETLgSAEP8Q8aaq-57" value="Send Rejection with Reason" style="whiteSpace=wrap;html=1;rounded=1;arcSize=0;fontSize=9;" vertex="1" parent="1">
          <mxGeometry x="950" y="1610" width="120" height="60" as="geometry" />
        </mxCell>
        <mxCell id="042qckETLgSAEP8Q8aaq-58" value="" style="edgeStyle=orthogonalEdgeStyle;rounded=0;orthogonalLoop=1;jettySize=auto;html=1;fontSize=9;" edge="1" parent="1" source="042qckETLgSAEP8Q8aaq-55" target="042qckETLgSAEP8Q8aaq-57">
          <mxGeometry relative="1" as="geometry" />
        </mxCell>
        <mxCell id="042qckETLgSAEP8Q8aaq-59" value="No" style="edgeLabel;html=1;align=center;verticalAlign=middle;resizable=0;points=[];fontSize=9;" vertex="1" connectable="0" parent="042qckETLgSAEP8Q8aaq-58">
          <mxGeometry x="-0.1329" y="6" relative="1" as="geometry">
            <mxPoint as="offset" />
          </mxGeometry>
        </mxCell>
        <mxCell id="042qckETLgSAEP8Q8aaq-61" value="" style="edgeStyle=orthogonalEdgeStyle;rounded=0;orthogonalLoop=1;jettySize=auto;html=1;fontSize=9;" edge="1" parent="1" source="042qckETLgSAEP8Q8aaq-57" target="042qckETLgSAEP8Q8aaq-60">
          <mxGeometry relative="1" as="geometry" />
        </mxCell>
      </root>
    </mxGraphModel>
  </diagram>
</mxfile>
